<svg xmlns="http://www.w3.org/2000/svg" viewBox="0 0 24 24.929">
  <path d="M8.5 0C7.3666669 0 6.397097 0.56577412 5.8222656 1.3417969C5.2474342 2.1178196 5 3.0648149 5 4C5 4.6397213 5.3055809 5.2262339 5.5625 5.8183594C5.000023 5.3561625 4.3245733 5 3.5 5C2.3666669 5 1.397097 5.5657741 0.82226562 6.3417969C0.24743423 7.1178196 0 8.0648149 0 9C0 9.9351851 0.24743423 10.88218 0.82226562 11.658203C1.397097 12.434226 2.3666669 13 3.5 13C4.6333331 13 5.602903 12.434226 6.1777344 11.658203C6.7525658 10.88218 7 9.9351851 7 9C7 8.3602787 6.6944191 7.7737661 6.4375 7.1816406C6.999977 7.6438375 7.6754267 8 8.5 8C9.6333331 8 10.602903 7.4342259 11.177734 6.6582031C11.752566 5.8821804 12 4.9351851 12 4C12 3.0648149 11.752566 2.1178196 11.177734 1.3417969C10.602903 0.56577411 9.6333331 -1.4802974e-16 8.5 0 z M 12 4C12 4.9351851 12.247434 5.8821804 12.822266 6.6582031C13.397097 7.4342259 14.366667 8 15.5 8C16.324573 8 17.000023 7.6438375 17.5625 7.1816406C17.305581 7.7737661 17 8.3602787 17 9C17 9.9351851 17.247434 10.88218 17.822266 11.658203C18.397097 12.434226 19.366667 13 20.5 13C21.633333 13 22.602903 12.434226 23.177734 11.658203C23.752566 10.88218 24 9.9351851 24 9C24 8.0648149 23.752566 7.1178196 23.177734 6.3417969C22.602903 5.5657741 21.633333 5 20.5 5C19.675427 5 18.999977 5.3561625 18.4375 5.8183594C18.694419 5.2262339 19 4.6397213 19 4C19 3.0648149 18.752566 2.1178196 18.177734 1.3417969C17.602903 0.56577411 16.633333 -1.4802974e-16 15.5 0C14.366667 0 13.397097 0.56577412 12.822266 1.3417969C12.247434 2.1178196 12 3.0648149 12 4 z M 8.5 2C9.0333328 2 9.3137641 2.1842259 9.5722656 2.5332031C9.8307672 2.8821804 10 3.4351851 10 4C10 4.5648149 9.8307672 5.1178196 9.5722656 5.4667969C9.3137641 5.8157741 9.0333328 6 8.5 6C7.9666672 6 7.6862359 5.8157741 7.4277344 5.4667969C7.1692328 5.1178196 7 4.5648149 7 4C7 3.4351851 7.1692328 2.8821804 7.4277344 2.5332031C7.6862359 2.1842259 7.9666672 2 8.5 2 z M 15.5 2C16.033333 2 16.313764 2.1842259 16.572266 2.5332031C16.830767 2.8821804 17 3.4351851 17 4C17 4.5648149 16.830767 5.1178196 16.572266 5.4667969C16.313764 5.8157741 16.033333 6 15.5 6C14.966667 6 14.686236 5.8157741 14.427734 5.4667969C14.169233 5.1178196 14 4.5648149 14 4C14 3.4351851 14.169233 2.8821804 14.427734 2.5332031C14.686236 2.1842259 14.966667 2 15.5 2 z M 3.5 7C4.0333328 7 4.3137641 7.1842259 4.5722656 7.5332031C4.8307672 7.8821804 5 8.4351851 5 9C5 9.5648149 4.8307672 10.11782 4.5722656 10.466797C4.3137641 10.815774 4.0333328 11 3.5 11C2.9666672 11 2.6862359 10.815774 2.4277344 10.466797C2.1692328 10.11782 2 9.5648149 2 9C2 8.4351851 2.1692328 7.8821804 2.4277344 7.5332031C2.6862359 7.1842259 2.9666672 7 3.5 7 z M 20.5 7C21.033333 7 21.313764 7.1842259 21.572266 7.5332031C21.830767 7.8821804 22 8.4351851 22 9C22 9.5648149 21.830767 10.11782 21.572266 10.466797C21.313764 10.815774 21.033333 11 20.5 11C19.966667 11 19.686236 10.815774 19.427734 10.466797C19.169233 10.11782 19 9.5648149 19 9C19 8.4351851 19.169233 7.8821804 19.427734 7.5332031C19.686236 7.1842259 19.966667 7 20.5 7 z M 12 10.070312C11.232083 10.070312 10.552522 10.401143 10.019531 10.824219C9.4865412 11.247295 9.0481642 11.765166 8.5996094 12.314453C7.7024996 13.413028 6.768175 14.649234 5.4179688 15.613281C3.6024031 16.909595 2.6186414 19.133347 3.0683594 21.214844C3.2932184 22.255592 3.9248574 23.247625 4.9394531 23.917969C5.9519115 24.586901 7.3073914 24.942535 9 24.927734L15 24.927734C18.276556 24.927734 20.455968 23.443826 21.035156 21.396484C21.614345 19.349143 20.619518 17.070912 18.582031 15.615234C17.24925 14.663184 16.427429 13.448337 15.572266 12.335938C15.144684 11.779737 14.707827 11.243981 14.136719 10.810547C13.565611 10.377113 12.824926 10.070313 12 10.070312 z M 12 12.070312C12.380574 12.070312 12.616561 12.166182 12.927734 12.402344C13.238908 12.638504 13.590285 13.039512 13.986328 13.554688C14.778415 14.585038 15.75075 16.051237 17.417969 17.242188C18.910482 18.308509 19.414639 19.779404 19.111328 20.851562C18.808017 21.923722 17.723444 22.927734 15 22.927734L8.9960938 22.927734L8.9902344 22.927734C7.5833438 22.94133 6.6397636 22.64364 6.0410156 22.248047C5.4422676 21.852454 5.1474535 21.36697 5.0234375 20.792969C4.7754055 19.644965 5.397597 18.087874 6.5820312 17.242188C8.2318251 16.064235 9.2975 14.62255 10.150391 13.578125C10.576836 13.055912 10.950959 12.637299 11.261719 12.390625C11.572478 12.143951 11.767917 12.070313 12 12.070312 z M 11 15L11 17L9 17L9 19L11 19L11 21L13 21L13 19L15 19L15 17L13 17L13 15L11 15 z" fill="#4F46E5" />
</svg>